<svg width="25" height="25" viewBox="0 0 25 25" fill="none" xmlns="http://www.w3.org/2000/svg">
<path d="M4.16699 4.16667H5.86036C6.4833 4.16667 6.79477 4.16667 7.03612 4.31551C7.09878 4.35415 7.15697 4.39959 7.20966 4.451C7.41259 4.64905 7.48813 4.95122 7.63921 5.55556L7.82838 6.31221C7.94871 6.79353 8.00887 7.03418 8.1089 7.23284C8.37798 7.7672 8.87215 8.15303 9.45581 8.28447C9.6728 8.33334 9.92086 8.33334 10.417 8.33334" stroke="white" stroke-width="2" stroke-linecap="round"/>
<path d="M18.75 17.7083H7.86553C7.6615 17.7083 7.55948 17.7083 7.48248 17.6963C6.93277 17.61 6.55916 17.0917 6.6512 16.5429C6.66409 16.466 6.69635 16.3693 6.76087 16.1757C6.8325 15.9608 6.86832 15.8534 6.91063 15.7597C7.20385 15.1109 7.81992 14.6668 8.5282 14.5939C8.63042 14.5833 8.74367 14.5833 8.97018 14.5833H14.5833" stroke="white" stroke-width="2" stroke-linecap="round" stroke-linejoin="round"/>
<path d="M16.4726 14.5833H10.0279C9.05023 14.5833 8.21585 13.8765 8.05513 12.9121L7.58309 10.0799C7.43071 9.16563 8.13577 8.33333 9.06268 8.33333H19.2156C19.959 8.33333 20.4425 9.11564 20.1101 9.78054L18.2614 13.4778C17.9227 14.1553 17.2301 14.5833 16.4726 14.5833Z" stroke="white" stroke-width="2" stroke-linecap="round"/>
<circle cx="17.7087" cy="20.8333" r="1.04167" fill="white"/>
<circle cx="9.37467" cy="20.8333" r="1.04167" fill="white"/>
</svg>
