<svg width="25" height="25" viewBox="0 0 25 25" fill="none" xmlns="http://www.w3.org/2000/svg">
<path d="M4.63644 14.4877L11.8787 21.2911C12.1421 21.5385 12.2737 21.6622 12.431 21.6842C12.477 21.6906 12.5236 21.6906 12.5696 21.6842C12.7269 21.6622 12.8586 21.5385 13.1219 21.2911L20.3642 14.4877C22.4019 12.5735 22.6493 9.42355 20.9355 7.21466L20.6133 6.79932C18.5631 4.15686 14.4479 4.60002 13.0073 7.61839C12.8038 8.04475 12.1969 8.04476 11.9934 7.61839C10.5528 4.60002 6.43753 4.15686 4.38735 6.79932L4.0651 7.21466C2.35131 9.42355 2.59876 12.5735 4.63644 14.4877Z" stroke="white" stroke-width="2"/>
</svg>
