<svg width="40" height="40" viewBox="0 0 40 40" fill="none" xmlns="http://www.w3.org/2000/svg">
<path d="M15 11.6667L21.6667 11.6667" stroke="white" stroke-width="2" stroke-linecap="round"/>
<path d="M15 25L20 25" stroke="white" stroke-width="2" stroke-linecap="round"/>
<path d="M15 18.3333L25 18.3333" stroke="white" stroke-width="2" stroke-linecap="round"/>
<path d="M31.6666 18.3333V11C31.6666 8.17157 31.6666 6.75736 30.7879 5.87868C29.9092 5 28.495 5 25.6666 5H14.3333C11.5048 5 10.0906 5 9.21193 5.87868C8.33325 6.75736 8.33325 8.17157 8.33325 11V29C8.33325 31.8284 8.33325 33.2426 9.21193 34.1213C10.0906 35 11.5048 35 14.3333 35H19.9999" stroke="white" stroke-width="2"/>
<circle cx="29.1667" cy="29.1667" r="4.16667" stroke="white" stroke-width="2"/>
<path d="M35 35L32.5 32.5" stroke="white" stroke-width="2" stroke-linecap="round"/>
</svg>
